<?xml version="1.0" ?><svg id="Layer_1" style="enable-background:new 0 0 512 512;" version="1.1" viewBox="0 0 512 512" xml:space="preserve" xmlns="http://www.w3.org/2000/svg" xmlns:xlink="http://www.w3.org/1999/xlink"><g><path d="M154.6,6c40,0,72.6,32.6,72.6,72.6c0,0.1,0,0.2,0,0.4h-21.7c0-0.1,0-0.2,0-0.4c0-28.1-22.9-50.9-50.9-50.9   s-50.9,22.9-50.9,50.9c0,26.7,20.7,48.6,46.8,50.7V151C112.3,148.9,82,117.3,82,78.6C82,38.6,114.5,6,154.6,6z"/><path d="M330.8,87.6H159.1v138.8c0,62.9,46.7,114.7,106.2,120.7v143.1h-68.6V506h160.4v-15.7h-68.6V347.2   c59.5-6,106.2-57.8,106.2-120.7V87.6H344l9.1-44.7c1.5-7.2,6.7-12.2,12.7-12.2H430v-13h-64.2c-12.3,0-22.7,9.3-25.4,22.6   L330.8,87.6z M323.7,187.8l15.9-78.5H373v75.4L323.7,187.8z M212.6,223.1l3-16.8c0.5-2.9,3.3-4.8,6.2-4.3l16.8,3   c2.9,0.5,4.8,3.3,4.3,6.2l-3,16.8c-0.5,2.9-3.3,4.8-6.2,4.3l-16.8-3C214,228.8,212.1,226,212.6,223.1z M326.4,109.3l-16.1,79.3   l-14.4,0.9c1.3,2.6,1.1,5.8-0.9,8.2L279.7,216c-2.6,3.1-7.3,3.6-10.4,0.9L251,201.6c-2.8-2.3-3.4-6.2-1.8-9.2l-68.4,4.2v-87.3   H326.4z"/><path d="M248.6,181.6c-0.9,3.2-4.2,5.2-7.4,4.3l-19-5c-3.2-0.9-5.2-4.2-4.3-7.4l5-19c0.9-3.2,4.2-5.2,7.4-4.3l19,5   c3.2,0.9,5.2,4.2,4.3,7.4L248.6,181.6z"/><path d="M265.3,172.9c2.6-3.1,7.3-3.6,10.4-0.9l18.3,15.3c0.8,0.6,1.4,1.4,1.8,2.3l-46.7,2.9c0.2-0.4,0.5-0.8,0.8-1.2L265.3,172.9z   "/></g></svg>