<?xml version="1.0" ?><svg id="Layer_1" style="enable-background:new 0 0 512 512;" version="1.1" viewBox="0 0 512 512" xml:space="preserve" xmlns="http://www.w3.org/2000/svg" xmlns:xlink="http://www.w3.org/1999/xlink"><style type="text/css">
	.st0{fill-rule:evenodd;clip-rule:evenodd;}
</style><g><path class="st0" d="M89.7,64.9c-11.4,11.9-18.5,27.9-18.9,45.6h64.5L89.7,64.9z"/><path class="st0" d="M140.2,44v64.5l45.6-45.6C173.9,51.5,157.9,44.4,140.2,44z"/><path class="st0" d="M89.7,159.1l45.6-45.6H70.8C71.1,131.1,78.3,147.2,89.7,159.1z"/><path class="st0" d="M137.3,44c-17.7,0.4-33.7,7.5-45.6,18.9l45.6,45.6V44z"/><path class="st0" d="M137.3,115.4l-45.6,45.6c11.9,11.4,27.9,18.5,45.6,18.9V115.4z"/><path class="st0" d="M156.8,110.2c4.3-4.8,10.5-7.5,16.9-7.5h32.4c-2-14.6-8.6-27.6-18.3-37.7l-45.6,45.6h14.3   C156.6,110.4,156.7,110.3,156.8,110.2z"/><path class="st0" d="M138.7,183.4c-39.4,0-71.4-32-71.4-71.4s32-71.4,71.4-71.4c36.2,0,66.2,27.1,70.7,62.1h2.9   c-4.6-36.6-35.9-64.9-73.7-64.9C97.8,37.7,64.5,71,64.5,112c0,40.9,33.3,74.3,74.3,74.3c6.2,0,12.3-0.8,18.1-2.2l-0.3-2.9   C150.9,182.6,144.9,183.4,138.7,183.4z"/><path class="st0" d="M151.2,122.4c0.4-3.2,1.5-6.3,3.2-9h-12.2L151.2,122.4z"/><path class="st0" d="M151,126.3l-10.9-10.9V180c5.5-0.1,10.9-0.9,16-2.2l-5.1-50C151,127.2,151,126.8,151,126.3z"/><path class="st0" d="M386.9,6c-14.8,0-27.6,9.5-32,23.7l-22.3,73h9.6l21.5-70.3c3.1-10.3,12.5-17.2,23.2-17.2h60.6V6H386.9z"/><polygon class="st0" points="196.8,482.6 357,411.4 361.3,374 192.9,449  "/><polygon class="st0" points="190,423.9 364.5,346.3 368.8,309 186.1,390.3  "/><path class="st0" d="M215.7,506h114.2c9.3,0,17.1-7,18.1-16.3l5.9-50.6l-146.1,65C210.1,505.3,212.8,506,215.7,506z"/><path class="st0" d="M371.8,107.3H173.7c-10.8,0-19.2,9.3-18.1,20L176.6,308l202.8-90.2l10.5-90.5   C391,116.6,382.6,107.3,371.8,107.3z"/><polygon class="st0" points="183.2,365.2 372,281.2 376.2,245.5 179.5,333  "/></g></svg>