<?xml version="1.0" ?><svg id="Layer_1" style="enable-background:new 0 0 512 512;" version="1.1" viewBox="0 0 512 512" xml:space="preserve" xmlns="http://www.w3.org/2000/svg" xmlns:xlink="http://www.w3.org/1999/xlink"><g><path d="M337.7,14.8h58.1V6h-58.1c-14.2,0-26.5,9.1-30.6,22.7l-25.5,84.1H139.1c-6.5,0-12.7,2.8-17,7.5c-4.3,4.8-6.4,11.2-5.8,17.7   l40.2,347.4c1.2,11.7,11,20.6,22.8,20.6h109.4c11.8,0,21.6-8.8,22.8-20.5L351.8,138c0.7-6.4-1.4-12.9-5.8-17.7   c-4.3-4.8-10.5-7.5-17-7.5h-38.3l24.7-81.5C318.5,21.4,327.4,14.8,337.7,14.8z M282.8,373.4l-12.9,30.4c-2.2,5.2-8.2,7.6-13.4,5.4   l-30.4-12.9c-5.2-2.2-7.6-8.2-5.4-13.4l12.9-30.4c2.2-5.2,8.2-7.6,13.4-5.4l30.4,12.9C282.6,362.2,285,368.2,282.8,373.4z    M337.9,127.7c2.3,2.5,3.4,5.8,3,9.1l-14.3,123.4l-88.5,19c-0.1,0.4-0.2,0.7-0.4,1.1l-15.4,36.4c-2.6,6.2-9.8,9.1-16,6.5   l-36.4-15.4c-5-2.1-7.8-7.2-7.4-12.3L146,299l-18.8-162.1c-0.3-3.4,0.7-6.7,3-9.2c2.3-2.5,5.4-3.9,8.8-3.9H329   C332.4,123.7,335.6,125.1,337.9,127.7z"/><path d="M256.5,268c3.1,3.7,8.6,4.2,12.3,1.1l21.6-18c3.7-3.1,4.2-8.6,1.1-12.3l-18-21.6c-3.1-3.7-8.6-4.2-12.3-1.1l-21.6,18   c-3.7,3.1-4.2,8.6-1.1,12.3L256.5,268z"/><path d="M231.2,264.2l-36.4-15.4c-6.2-2.6-13.4,0.3-16,6.5l-15.4,36.4c-0.5,1.2-0.8,2.5-0.9,3.8l75.6-16.2   C240,273.3,237.1,266.7,231.2,264.2z"/></g></svg>